M48
;GenerationSoftware,Autodesk,EAGLE,9.6.2*%
;CreationDate,2021-05-06T13:17:31Z*%
FMAT,2
ICI,OFF
METRIC,TZ,000.000
T10C0.508
T9C0.550
T8C0.813
T7C0.850
T6C0.900
T5C1.000
T4C1.016
T3C1.118
T2C1.500
T1C3.175
%
G90
M71
T1
X2540Y96520
X2540Y77470
X97790Y77470
X97790Y96520
T2
X2159Y63683
X2159Y70683
T3
X90170Y50800
X90170Y48260
X90170Y45720
X90170Y43180
X90170Y40640
X90170Y38100
X90170Y35560
X90170Y33020
X90170Y30480
X90170Y25400
X80010Y25400
X90170Y27940
X80010Y30480
X80010Y33020
X80010Y35560
X80010Y38100
X80010Y40640
X80010Y43180
X80010Y45720
X80010Y48260
X80010Y50800
X80010Y53340
X80010Y55880
X80010Y58420
X90170Y53340
X90170Y55880
X90170Y58420
X80010Y27940
T4
X60960Y50800
X55753Y20955
X8382Y10541
X93853Y6223
X93853Y3683
X3810Y41910
X3810Y44450
X86360Y2540
X86360Y5080
X86360Y7620
X86360Y10160
X86360Y12700
X86360Y15240
X86360Y17780
X86360Y20320
X40640Y69850
X40640Y72390
X74930Y45720
X74930Y43180
X74930Y40640
X92710Y68580
X87630Y68580
X82550Y68580
X40640Y77470
X40640Y80010
X33020Y24130
X35560Y11430
X24130Y8890
X74930Y55880
X74930Y53340
X74930Y50800
X74930Y48260
X83820Y2540
X83820Y5080
X83820Y7620
X83820Y10160
X83820Y12700
X83820Y15240
X83820Y17780
X83820Y20320
X81280Y2540
X81280Y5080
X81280Y7620
X81280Y10160
X81280Y12700
X81280Y15240
X81280Y17780
X81280Y20320
X78740Y2540
X78740Y5080
X54610Y86360
X54610Y83820
X54610Y81280
X54610Y78740
X54610Y76200
X54610Y73660
X54610Y71120
X46990Y71120
X46990Y73660
X46990Y76200
X46990Y78740
X46990Y81280
X46990Y83820
X46990Y86360
X27940Y29210
X30480Y29210
X27940Y26670
X30480Y26670
X27940Y24130
X30480Y24130
X27940Y21590
X30480Y21590
X27940Y19050
X30480Y19050
X27940Y16510
X30480Y16510
X27940Y13970
X30480Y13970
X27940Y11430
X30480Y11430
X27940Y8890
X30480Y8890
X27940Y6350
X30480Y6350
X27940Y3810
X30480Y3810
X78740Y7620
X78740Y10160
X78740Y12700
X15240Y55880
X17780Y55880
X20320Y55880
X22860Y55880
X35560Y59690
X35560Y57150
X35560Y54610
X35560Y52070
X35560Y49530
X78740Y15240
X78740Y17780
X5080Y33020
X5080Y30480
X5080Y27940
X5080Y25400
X5080Y22860
X5080Y20320
X10160Y34290
X10160Y31750
X10160Y29210
X10160Y26670
X10160Y24130
X10160Y21590
X10160Y19050
X58293Y3175
X58293Y5715
X58293Y8255
X58293Y10795
X58293Y13335
X58293Y15875
X58293Y18415
X58293Y20955
X55753Y3175
X55753Y5715
X55753Y8255
X55753Y10795
X55753Y13335
X55753Y15875
X55753Y18415
X93853Y8763
X91059Y3810
X91059Y6350
X91059Y8890
X91059Y11430
X91059Y13970
X91059Y16510
X91059Y19050
X91059Y21590
X93853Y21463
X93853Y18923
X93853Y16383
X93853Y13843
X78740Y20320
X76200Y2540
X76200Y5080
X76200Y7620
X76200Y10160
X93853Y11303
X76200Y12700
X76200Y15240
X76200Y17780
X76200Y20320
X73660Y2540
X73660Y5080
X73660Y7620
X73660Y10160
X73660Y12700
X73660Y15240
X73660Y17780
X73660Y20320
X71120Y2540
X71120Y5080
X71120Y7620
X71120Y10160
X71120Y12700
X71120Y15240
X71120Y17780
X71120Y20320
X68580Y2540
X68580Y5080
X68580Y7620
X68580Y10160
X68580Y12700
X68580Y15240
X63500Y20320
X63500Y17780
X63500Y15240
X63500Y12700
X63500Y10160
X63500Y7620
X63500Y5080
X63500Y2540
X66040Y20320
X66040Y17780
X66040Y15240
X66040Y12700
X66040Y10160
X66040Y7620
X66040Y5080
X66040Y2540
X68580Y20320
X68580Y17780
T5
X26710Y74930
X31710Y74930
X71080Y73660
X66080Y73660
T6
X4953Y55840
X4953Y53340
X4953Y50840
T7
X4859Y64683
X4859Y69683
T8
X53340Y41910
X53340Y39370
X53340Y36830
X53340Y34290
X53340Y31750
X53340Y29210
X53340Y26670
X45720Y26670
X45720Y29210
X45720Y31750
X45720Y34290
X45720Y36830
X45720Y39370
X45720Y41910
X45720Y44450
X45720Y46990
X45720Y49530
X45720Y54610
X45720Y57150
X45720Y59690
X53340Y44450
X53340Y46990
X53340Y49530
X15240Y33020
X53340Y52070
X53340Y54610
X53340Y57150
X59690Y24130
X59690Y34290
X77597Y79375
X67437Y79375
X98171Y19304
X98171Y9144
X67310Y24130
X67310Y34290
X64770Y24130
X64770Y34290
X15240Y66040
X25400Y66040
X13970Y78740
X24130Y78740
X96520Y34290
X96520Y36830
X10160Y74930
X12700Y74930
X73660Y31750
X73660Y34290
X66040Y41910
X60960Y41910
X40640Y22860
X40640Y25400
X60960Y55880
X60960Y58420
X53340Y59690
X25400Y33020
X45720Y52070
T9
X50292Y38100
X13970Y30480
X8890Y48260
X71120Y60960
X16510Y26670
X53340Y7620
X27940Y45720
X41910Y48260
X19812Y42164
X29210Y62230
X26670Y41910
X69850Y29210
X66040Y68580
X25400Y38100
X48260Y21590
X49530Y29210
X56134Y24130
X16510Y20320
X19050Y37211
X21590Y45720
X39370Y48260
X36630Y38989
X20447Y39116
X33020Y40640
X39370Y40640
X30226Y39370
X43180Y41910
X22860Y40640
X30480Y41910
X30480Y49530
T10
X86360Y27940
X62230Y26670
X7556Y66739
X82550Y22860
X60960Y21590
M30