G04 EAGLE Gerber RS-274X export*
G75*
%MOMM*%
%FSLAX34Y34*%
%LPD*%
%INTop Soldermask*%
%IPPOS*%
%AMOC8*
5,1,8,0,0,1.08239X$1,22.5*%
G01*
%ADD10C,3.378200*%
%ADD11C,2.082800*%
%ADD12P,1.759533X8X292.500000*%
%ADD13C,1.625600*%
%ADD14P,1.759533X8X22.500000*%
%ADD15P,1.759533X8X202.500000*%
%ADD16P,1.759533X8X112.500000*%
%ADD17P,2.254402X8X292.500000*%
%ADD18C,1.712800*%
%ADD19C,1.812800*%
%ADD20C,2.082800*%
%ADD21C,1.625600*%
%ADD22R,1.553200X0.603200*%
%ADD23C,1.662800*%
%ADD24C,2.453200*%
%ADD25C,1.261200*%


D10*
X25400Y965200D03*
X25400Y774700D03*
X977900Y774700D03*
X977900Y965200D03*
D11*
X38100Y419100D03*
X38100Y444500D03*
D12*
X609600Y584200D03*
X609600Y558800D03*
X406400Y254000D03*
X406400Y228600D03*
D13*
X609600Y419100D03*
D14*
X660400Y419100D03*
D12*
X736600Y342900D03*
X736600Y317500D03*
D11*
X406400Y698500D03*
X406400Y723900D03*
X749300Y457200D03*
X749300Y431800D03*
X749300Y406400D03*
X927100Y685800D03*
X876300Y685800D03*
X825500Y685800D03*
X406400Y774700D03*
X406400Y800100D03*
X330200Y241300D03*
X355600Y114300D03*
X241300Y88900D03*
X749300Y558800D03*
X749300Y533400D03*
X749300Y508000D03*
X749300Y482600D03*
D15*
X127000Y749300D03*
X101600Y749300D03*
D12*
X965200Y368300D03*
X965200Y342900D03*
D15*
X241300Y787400D03*
X139700Y787400D03*
X254000Y660400D03*
X152400Y660400D03*
D12*
X647700Y342900D03*
X647700Y241300D03*
X673100Y342900D03*
X673100Y241300D03*
D16*
X981710Y91440D03*
X981710Y193040D03*
D14*
X674370Y793750D03*
X775970Y793750D03*
D12*
X596900Y342900D03*
X596900Y241300D03*
D11*
X546100Y863600D03*
X546100Y838200D03*
X546100Y812800D03*
X546100Y787400D03*
X546100Y762000D03*
X546100Y736600D03*
X546100Y711200D03*
X469900Y711200D03*
X469900Y736600D03*
X469900Y762000D03*
X469900Y787400D03*
X469900Y812800D03*
X469900Y838200D03*
X469900Y863600D03*
D17*
X279400Y292100D03*
X304800Y292100D03*
X279400Y266700D03*
X304800Y266700D03*
X279400Y241300D03*
X304800Y241300D03*
X279400Y215900D03*
X304800Y215900D03*
X279400Y190500D03*
X304800Y190500D03*
X279400Y165100D03*
X304800Y165100D03*
X279400Y139700D03*
X304800Y139700D03*
X279400Y114300D03*
X304800Y114300D03*
X279400Y88900D03*
X304800Y88900D03*
X279400Y63500D03*
X304800Y63500D03*
X279400Y38100D03*
X304800Y38100D03*
D18*
X49530Y558400D03*
X49530Y533400D03*
X49530Y508400D03*
D11*
X152400Y558800D03*
X177800Y558800D03*
X203200Y558800D03*
X228600Y558800D03*
X355600Y596900D03*
X355600Y571500D03*
X355600Y546100D03*
X355600Y520700D03*
X355600Y495300D03*
D19*
X267100Y749300D03*
X317100Y749300D03*
D11*
X50800Y330200D03*
X50800Y304800D03*
X50800Y279400D03*
X50800Y254000D03*
X50800Y228600D03*
X50800Y203200D03*
X101600Y342900D03*
X101600Y317500D03*
X101600Y292100D03*
X101600Y266700D03*
X101600Y241300D03*
X101600Y215900D03*
X101600Y190500D03*
D20*
X790702Y584200D02*
X809498Y584200D01*
X809498Y558800D02*
X790702Y558800D01*
X790702Y533400D02*
X809498Y533400D01*
X809498Y508000D02*
X790702Y508000D01*
X790702Y482600D02*
X809498Y482600D01*
X809498Y457200D02*
X790702Y457200D01*
X790702Y431800D02*
X809498Y431800D01*
X809498Y406400D02*
X790702Y406400D01*
X790702Y381000D02*
X809498Y381000D01*
X809498Y355600D02*
X790702Y355600D01*
X790702Y330200D02*
X809498Y330200D01*
X809498Y304800D02*
X790702Y304800D01*
X790702Y279400D02*
X809498Y279400D01*
X809498Y254000D02*
X790702Y254000D01*
X892302Y254000D02*
X911098Y254000D01*
X911098Y279400D02*
X892302Y279400D01*
X892302Y304800D02*
X911098Y304800D01*
X911098Y330200D02*
X892302Y330200D01*
X892302Y355600D02*
X911098Y355600D01*
X911098Y381000D02*
X892302Y381000D01*
X892302Y406400D02*
X911098Y406400D01*
X911098Y431800D02*
X892302Y431800D01*
X892302Y457200D02*
X911098Y457200D01*
X911098Y482600D02*
X892302Y482600D01*
X892302Y508000D02*
X911098Y508000D01*
X911098Y533400D02*
X892302Y533400D01*
X892302Y558800D02*
X911098Y558800D01*
X911098Y584200D02*
X892302Y584200D01*
D19*
X710800Y736600D03*
X660800Y736600D03*
D21*
X464312Y596900D02*
X450088Y596900D01*
X450088Y571500D02*
X464312Y571500D01*
X464312Y546100D02*
X450088Y546100D01*
X450088Y520700D02*
X464312Y520700D01*
X464312Y495300D02*
X450088Y495300D01*
X450088Y469900D02*
X464312Y469900D01*
X464312Y444500D02*
X450088Y444500D01*
X450088Y419100D02*
X464312Y419100D01*
X464312Y393700D02*
X450088Y393700D01*
X450088Y368300D02*
X464312Y368300D01*
X464312Y342900D02*
X450088Y342900D01*
X450088Y317500D02*
X464312Y317500D01*
X464312Y292100D02*
X450088Y292100D01*
X450088Y266700D02*
X464312Y266700D01*
X526288Y266700D02*
X540512Y266700D01*
X540512Y292100D02*
X526288Y292100D01*
X526288Y317500D02*
X540512Y317500D01*
X540512Y342900D02*
X526288Y342900D01*
X526288Y368300D02*
X540512Y368300D01*
X540512Y393700D02*
X526288Y393700D01*
X526288Y419100D02*
X540512Y419100D01*
X540512Y444500D02*
X526288Y444500D01*
X526288Y469900D02*
X540512Y469900D01*
X540512Y495300D02*
X526288Y495300D01*
X526288Y520700D02*
X540512Y520700D01*
X540512Y546100D02*
X526288Y546100D01*
X526288Y571500D02*
X540512Y571500D01*
X540512Y596900D02*
X526288Y596900D01*
D15*
X254000Y330200D03*
X152400Y330200D03*
D11*
X635000Y203200D03*
X635000Y177800D03*
X635000Y152400D03*
X635000Y127000D03*
X635000Y101600D03*
X635000Y76200D03*
X635000Y50800D03*
X635000Y25400D03*
X660400Y203200D03*
X660400Y177800D03*
X660400Y152400D03*
X660400Y127000D03*
X660400Y101600D03*
X660400Y76200D03*
X660400Y50800D03*
X660400Y25400D03*
X685800Y203200D03*
X685800Y177800D03*
X685800Y152400D03*
X685800Y127000D03*
X685800Y101600D03*
X685800Y76200D03*
X685800Y50800D03*
X685800Y25400D03*
X711200Y203200D03*
X711200Y177800D03*
X711200Y152400D03*
X711200Y127000D03*
X711200Y101600D03*
X711200Y76200D03*
X711200Y50800D03*
X711200Y25400D03*
X736600Y203200D03*
X736600Y177800D03*
X736600Y152400D03*
X736600Y127000D03*
X736600Y101600D03*
X736600Y76200D03*
X736600Y50800D03*
X736600Y25400D03*
X762000Y203200D03*
X762000Y177800D03*
X762000Y152400D03*
X762000Y127000D03*
X762000Y101600D03*
X762000Y76200D03*
X762000Y50800D03*
X762000Y25400D03*
X787400Y203200D03*
X787400Y177800D03*
X787400Y152400D03*
X787400Y127000D03*
X787400Y101600D03*
X787400Y76200D03*
X787400Y50800D03*
X787400Y25400D03*
X812800Y203200D03*
X812800Y177800D03*
X812800Y152400D03*
X812800Y127000D03*
X812800Y101600D03*
X812800Y76200D03*
X812800Y50800D03*
X812800Y25400D03*
X838200Y203200D03*
X838200Y177800D03*
X838200Y152400D03*
X838200Y127000D03*
X838200Y101600D03*
X838200Y76200D03*
X838200Y50800D03*
X838200Y25400D03*
X863600Y203200D03*
X863600Y177800D03*
X863600Y152400D03*
X863600Y127000D03*
X863600Y101600D03*
X863600Y76200D03*
X863600Y50800D03*
X863600Y25400D03*
X938530Y36830D03*
X938530Y62230D03*
X938530Y87630D03*
X938530Y113030D03*
X938530Y138430D03*
X938530Y163830D03*
X938530Y189230D03*
X938530Y214630D03*
X910590Y215900D03*
X910590Y190500D03*
X910590Y165100D03*
X910590Y139700D03*
X910590Y114300D03*
X910590Y88900D03*
X910590Y63500D03*
X910590Y38100D03*
X557530Y209550D03*
X557530Y184150D03*
X557530Y158750D03*
X557530Y133350D03*
X557530Y107950D03*
X557530Y82550D03*
X557530Y57150D03*
X557530Y31750D03*
X582930Y209550D03*
X582930Y184150D03*
X582930Y158750D03*
X582930Y133350D03*
X582930Y107950D03*
X582930Y82550D03*
X582930Y57150D03*
X582930Y31750D03*
D22*
X48590Y684830D03*
X48590Y678330D03*
X48590Y671830D03*
X48590Y665330D03*
X48590Y658830D03*
D23*
X48590Y696830D03*
D24*
X21590Y706830D03*
X21590Y636830D03*
D23*
X48590Y646830D03*
D11*
X83820Y105410D03*
X609600Y508000D03*
D25*
X88900Y482600D03*
X711200Y609600D03*
X165100Y266700D03*
X279400Y457200D03*
X419100Y482600D03*
X198120Y421640D03*
X292100Y622300D03*
X266700Y419100D03*
X698500Y292100D03*
X660400Y685800D03*
X482600Y215900D03*
X495300Y292100D03*
X561340Y241300D03*
X165100Y203200D03*
X139700Y304800D03*
X215900Y457200D03*
X393700Y482600D03*
X366296Y389890D03*
X204470Y391160D03*
X330200Y406400D03*
X393700Y406400D03*
X302260Y393700D03*
X431800Y419100D03*
X228600Y406400D03*
X304800Y419100D03*
X304800Y495300D03*
X190500Y372110D03*
X533400Y76200D03*
X502920Y381000D03*
X254000Y381000D03*
M02*
